<svg width="731" height="191" viewBox="0 0 731 191" fill="none" xmlns="http://www.w3.org/2000/svg">
<g clip-path="url(#clip0_154_2)">
<g clip-path="url(#clip1_154_2)">
<rect x="46" y="2" width="145" height="142" rx="28" fill="#00C950"/>
<path d="M2 92C2 76.536 14.5423 64 30.0063 64C60.4026 64 84.5974 64 114.994 64C130.458 64 143 76.536 143 92V161C143 176.464 130.464 189 115 189H30C14.536 189 2 176.464 2 161V92Z" fill="#00C950"/>
<path d="M54 12L6 79.5L131 183.5L184 133.5L54 12Z" fill="#00C950" stroke="#00C950"/>
<path d="M140.936 30.896H172.76L136.568 148H88.312L52.12 30.896H83.944L112.232 136.144L140.936 30.896Z" fill="white"/>
</g>
<path d="M288.88 47.424H308.944L281.584 133H251.032L223.672 47.424H243.736L266.08 125.4L288.88 47.424ZM333.874 134.52C326.68 134.52 320.65 133.152 315.786 130.416C311.024 127.579 307.426 123.779 304.994 119.016C302.664 114.152 301.498 108.629 301.498 102.448C301.498 96.1653 302.664 90.6427 304.994 85.88C307.426 81.016 311.024 77.216 315.786 74.48C320.65 71.6427 326.68 70.224 333.874 70.224C344.413 70.224 352.418 73.1627 357.89 79.04C363.362 84.9173 366.098 92.72 366.098 102.448C366.098 108.528 364.933 114 362.602 118.864C360.272 123.627 356.725 127.427 351.962 130.264C347.2 133.101 341.17 134.52 333.874 134.52ZM333.874 119.168C338.029 119.168 341.12 118.307 343.146 116.584C345.274 114.861 346.693 112.683 347.402 110.048C348.112 107.312 348.466 104.576 348.466 101.84C348.466 99.0027 348.112 96.2667 347.402 93.632C346.693 90.896 345.274 88.6667 343.146 86.944C341.12 85.12 338.029 84.208 333.874 84.208C329.72 84.208 326.578 85.12 324.45 86.944C322.322 88.6667 320.904 90.896 320.194 93.632C319.485 96.2667 319.13 99.0027 319.13 101.84C319.13 104.576 319.485 107.312 320.194 110.048C320.904 112.683 322.322 114.861 324.45 116.584C326.578 118.307 329.72 119.168 333.874 119.168ZM401.289 134.52C395.411 134.52 389.99 133.355 385.025 131.024C380.161 128.592 376.259 125.045 373.321 120.384C370.382 115.621 368.913 109.744 368.913 102.752C369.115 95.9627 370.635 90.136 373.473 85.272C376.411 80.408 380.313 76.6587 385.177 74.024C390.041 71.3893 395.462 70.072 401.441 70.072C408.129 70.072 413.753 71.3893 418.313 74.024C422.873 76.5573 426.318 79.8 428.649 83.752C431.081 87.6027 432.398 91.6053 432.601 95.76H415.881C415.273 92.5173 413.803 90.0347 411.473 88.312C409.142 86.5893 406.001 85.728 402.049 85.728C398.705 85.728 395.918 86.3867 393.689 87.704C391.459 89.0213 389.737 90.8453 388.521 93.176C387.406 95.5067 386.849 98.2427 386.849 101.384C386.849 106.653 388.115 110.859 390.649 114C393.182 117.141 397.083 118.712 402.353 118.712C405.595 118.712 408.483 117.851 411.017 116.128C413.651 114.405 415.273 111.669 415.881 107.92H432.601C432.398 112.277 431.081 116.533 428.649 120.688C426.318 124.741 422.822 128.085 418.161 130.72C413.601 133.253 407.977 134.52 401.289 134.52ZM466.43 134.52C459.033 134.52 453.004 133 448.342 129.96C443.782 126.92 440.438 122.968 438.31 118.104C436.182 113.24 435.017 108.173 434.814 102.904C434.713 96.3173 435.929 90.5413 438.462 85.576C440.996 80.6107 444.593 76.76 449.254 74.024C454.017 71.288 459.54 69.92 465.822 69.92C471.598 69.92 476.766 71.136 481.326 73.568C485.886 76 489.484 79.496 492.118 84.056C494.753 88.5147 496.121 93.8347 496.222 100.016C496.222 100.117 496.222 100.675 496.222 101.688C496.222 102.701 496.222 103.461 496.222 103.968H452.294C452.294 109.136 453.51 112.987 455.942 115.52C458.476 118.053 461.82 119.32 465.974 119.32C469.42 119.32 472.206 118.509 474.334 116.888C476.564 115.267 477.881 113.139 478.286 110.504H496.07C495.665 114.861 494.297 118.915 491.966 122.664C489.636 126.312 486.342 129.2 482.086 131.328C477.83 133.456 472.612 134.52 466.43 134.52ZM452.598 96.216H477.83C477.83 95.8107 477.729 95 477.526 93.784C477.324 92.568 476.817 91.3013 476.006 89.984C475.196 88.5653 473.929 87.3493 472.206 86.336C470.585 85.3227 468.305 84.816 465.366 84.816C462.529 84.816 460.249 85.272 458.526 86.184C456.804 87.096 455.537 88.2613 454.726 89.68C453.916 90.9973 453.358 92.3147 453.054 93.632C452.75 94.848 452.598 95.7093 452.598 96.216ZM522.94 134.52C517.265 134.52 512.705 133.203 509.26 130.568C505.814 127.933 503.332 124.235 501.812 119.472C500.292 114.709 499.532 109.085 499.532 102.6C499.532 96.1147 500.292 90.44 501.812 85.576C503.433 80.712 505.916 76.9627 509.26 74.328C512.705 71.592 517.265 70.224 522.94 70.224C526.79 70.224 529.982 70.7813 532.516 71.896C535.049 72.9093 537.025 74.176 538.444 75.696C539.964 77.216 541.078 78.6347 541.788 79.952C542.497 81.168 542.953 81.928 543.156 82.232H543.46V70.376H562.308V133H546.348L543.46 123.576H543.156C543.054 123.981 542.598 124.792 541.788 126.008C541.078 127.123 539.964 128.339 538.444 129.656C536.924 130.973 534.897 132.088 532.364 133C529.83 134.013 526.689 134.52 522.94 134.52ZM530.54 119.168C534.188 119.168 536.924 118.459 538.748 117.04C540.572 115.52 541.788 113.493 542.396 110.96C543.004 108.427 543.308 105.691 543.308 102.752C543.308 99.712 543.004 96.9253 542.396 94.392C541.788 91.8587 540.572 89.8827 538.748 88.464C536.924 87.0453 534.188 86.336 530.54 86.336C526.892 86.336 524.105 87.096 522.18 88.616C520.356 90.136 519.14 92.1627 518.532 94.696C517.924 97.128 517.62 99.8133 517.62 102.752C517.62 105.691 517.924 108.427 518.532 110.96C519.14 113.392 520.356 115.368 522.18 116.888C524.105 118.408 526.892 119.168 530.54 119.168ZM607.421 134.52C603.672 134.52 600.53 133.963 597.997 132.848C595.565 131.733 593.589 130.467 592.069 129.048C590.549 127.629 589.434 126.363 588.725 125.248C588.117 124.032 587.813 123.323 587.813 123.12H587.509V162.032H568.509V70.376H584.469L587.509 82.84H587.813C587.813 82.7387 588.117 82.08 588.725 80.864C589.333 79.5467 590.346 78.0773 591.765 76.456C593.184 74.8347 595.16 73.416 597.693 72.2C600.226 70.984 603.469 70.376 607.421 70.376C613.704 70.376 618.72 71.6933 622.469 74.328C626.218 76.9627 628.904 80.7627 630.525 85.728C632.146 90.592 632.957 96.3173 632.957 102.904C632.957 109.491 632.096 115.165 630.373 119.928C628.752 124.589 626.066 128.187 622.317 130.72C618.568 133.253 613.602 134.52 607.421 134.52ZM601.493 119.32C605.445 119.32 608.384 118.509 610.309 116.888C612.336 115.267 613.653 113.24 614.261 110.808C614.97 108.275 615.325 105.589 615.325 102.752C615.325 99.9147 614.97 97.28 614.261 94.848C613.552 92.3147 612.184 90.288 610.157 88.768C608.232 87.248 605.293 86.488 601.341 86.488C597.693 86.488 594.856 87.1973 592.829 88.616C590.802 90.0347 589.384 92.0107 588.573 94.544C587.864 97.0773 587.509 99.8133 587.509 102.752C587.509 105.792 587.864 108.579 588.573 111.112C589.384 113.544 590.802 115.52 592.829 117.04C594.957 118.56 597.845 119.32 601.493 119.32ZM666.393 134.52C658.996 134.52 652.967 133 648.305 129.96C643.745 126.92 640.401 122.968 638.273 118.104C636.145 113.24 634.98 108.173 634.777 102.904C634.676 96.3173 635.892 90.5413 638.425 85.576C640.959 80.6107 644.556 76.76 649.217 74.024C653.98 71.288 659.503 69.92 665.785 69.92C671.561 69.92 676.729 71.136 681.289 73.568C685.849 76 689.447 79.496 692.081 84.056C694.716 88.5147 696.084 93.8347 696.185 100.016C696.185 100.117 696.185 100.675 696.185 101.688C696.185 102.701 696.185 103.461 696.185 103.968H652.257C652.257 109.136 653.473 112.987 655.905 115.52C658.439 118.053 661.783 119.32 665.937 119.32C669.383 119.32 672.169 118.509 674.297 116.888C676.527 115.267 677.844 113.139 678.249 110.504H696.033C695.628 114.861 694.26 118.915 691.929 122.664C689.599 126.312 686.305 129.2 682.049 131.328C677.793 133.456 672.575 134.52 666.393 134.52ZM652.561 96.216H677.793C677.793 95.8107 677.692 95 677.489 93.784C677.287 92.568 676.78 91.3013 675.969 89.984C675.159 88.5653 673.892 87.3493 672.169 86.336C670.548 85.3227 668.268 84.816 665.329 84.816C662.492 84.816 660.212 85.272 658.489 86.184C656.767 87.096 655.5 88.2613 654.689 89.68C653.879 90.9973 653.321 92.3147 653.017 93.632C652.713 94.848 652.561 95.7093 652.561 96.216Z" fill="#010101"/>
<path d="M712.111 133C707.855 133 705.018 131.987 703.599 129.96C702.18 127.832 701.471 125.299 701.471 122.36C701.471 119.523 702.18 117.141 703.599 115.216C705.119 113.189 707.956 112.176 712.111 112.176C716.164 112.176 718.9 113.189 720.319 115.216C721.738 117.141 722.447 119.523 722.447 122.36C722.447 125.4 721.738 127.933 720.319 129.96C718.9 131.987 716.164 133 712.111 133Z" fill="#00C950"/>
<path d="M288.88 47.424H308.944L281.584 133H251.032L223.672 47.424H243.736L266.08 125.4L288.88 47.424ZM333.874 134.52C326.68 134.52 320.65 133.152 315.786 130.416C311.024 127.579 307.426 123.779 304.994 119.016C302.664 114.152 301.498 108.629 301.498 102.448C301.498 96.1653 302.664 90.6427 304.994 85.88C307.426 81.016 311.024 77.216 315.786 74.48C320.65 71.6427 326.68 70.224 333.874 70.224C344.413 70.224 352.418 73.1627 357.89 79.04C363.362 84.9173 366.098 92.72 366.098 102.448C366.098 108.528 364.933 114 362.602 118.864C360.272 123.627 356.725 127.427 351.962 130.264C347.2 133.101 341.17 134.52 333.874 134.52ZM333.874 119.168C338.029 119.168 341.12 118.307 343.146 116.584C345.274 114.861 346.693 112.683 347.402 110.048C348.112 107.312 348.466 104.576 348.466 101.84C348.466 99.0027 348.112 96.2667 347.402 93.632C346.693 90.896 345.274 88.6667 343.146 86.944C341.12 85.12 338.029 84.208 333.874 84.208C329.72 84.208 326.578 85.12 324.45 86.944C322.322 88.6667 320.904 90.896 320.194 93.632C319.485 96.2667 319.13 99.0027 319.13 101.84C319.13 104.576 319.485 107.312 320.194 110.048C320.904 112.683 322.322 114.861 324.45 116.584C326.578 118.307 329.72 119.168 333.874 119.168ZM401.289 134.52C395.411 134.52 389.99 133.355 385.025 131.024C380.161 128.592 376.259 125.045 373.321 120.384C370.382 115.621 368.913 109.744 368.913 102.752C369.115 95.9627 370.635 90.136 373.473 85.272C376.411 80.408 380.313 76.6587 385.177 74.024C390.041 71.3893 395.462 70.072 401.441 70.072C408.129 70.072 413.753 71.3893 418.313 74.024C422.873 76.5573 426.318 79.8 428.649 83.752C431.081 87.6027 432.398 91.6053 432.601 95.76H415.881C415.273 92.5173 413.803 90.0347 411.473 88.312C409.142 86.5893 406.001 85.728 402.049 85.728C398.705 85.728 395.918 86.3867 393.689 87.704C391.459 89.0213 389.737 90.8453 388.521 93.176C387.406 95.5067 386.849 98.2427 386.849 101.384C386.849 106.653 388.115 110.859 390.649 114C393.182 117.141 397.083 118.712 402.353 118.712C405.595 118.712 408.483 117.851 411.017 116.128C413.651 114.405 415.273 111.669 415.881 107.92H432.601C432.398 112.277 431.081 116.533 428.649 120.688C426.318 124.741 422.822 128.085 418.161 130.72C413.601 133.253 407.977 134.52 401.289 134.52ZM466.43 134.52C459.033 134.52 453.004 133 448.342 129.96C443.782 126.92 440.438 122.968 438.31 118.104C436.182 113.24 435.017 108.173 434.814 102.904C434.713 96.3173 435.929 90.5413 438.462 85.576C440.996 80.6107 444.593 76.76 449.254 74.024C454.017 71.288 459.54 69.92 465.822 69.92C471.598 69.92 476.766 71.136 481.326 73.568C485.886 76 489.484 79.496 492.118 84.056C494.753 88.5147 496.121 93.8347 496.222 100.016C496.222 100.117 496.222 100.675 496.222 101.688C496.222 102.701 496.222 103.461 496.222 103.968H452.294C452.294 109.136 453.51 112.987 455.942 115.52C458.476 118.053 461.82 119.32 465.974 119.32C469.42 119.32 472.206 118.509 474.334 116.888C476.564 115.267 477.881 113.139 478.286 110.504H496.07C495.665 114.861 494.297 118.915 491.966 122.664C489.636 126.312 486.342 129.2 482.086 131.328C477.83 133.456 472.612 134.52 466.43 134.52ZM452.598 96.216H477.83C477.83 95.8107 477.729 95 477.526 93.784C477.324 92.568 476.817 91.3013 476.006 89.984C475.196 88.5653 473.929 87.3493 472.206 86.336C470.585 85.3227 468.305 84.816 465.366 84.816C462.529 84.816 460.249 85.272 458.526 86.184C456.804 87.096 455.537 88.2613 454.726 89.68C453.916 90.9973 453.358 92.3147 453.054 93.632C452.75 94.848 452.598 95.7093 452.598 96.216ZM522.94 134.52C517.265 134.52 512.705 133.203 509.26 130.568C505.814 127.933 503.332 124.235 501.812 119.472C500.292 114.709 499.532 109.085 499.532 102.6C499.532 96.1147 500.292 90.44 501.812 85.576C503.433 80.712 505.916 76.9627 509.26 74.328C512.705 71.592 517.265 70.224 522.94 70.224C526.79 70.224 529.982 70.7813 532.516 71.896C535.049 72.9093 537.025 74.176 538.444 75.696C539.964 77.216 541.078 78.6347 541.788 79.952C542.497 81.168 542.953 81.928 543.156 82.232H543.46V70.376H562.308V133H546.348L543.46 123.576H543.156C543.054 123.981 542.598 124.792 541.788 126.008C541.078 127.123 539.964 128.339 538.444 129.656C536.924 130.973 534.897 132.088 532.364 133C529.83 134.013 526.689 134.52 522.94 134.52ZM530.54 119.168C534.188 119.168 536.924 118.459 538.748 117.04C540.572 115.52 541.788 113.493 542.396 110.96C543.004 108.427 543.308 105.691 543.308 102.752C543.308 99.712 543.004 96.9253 542.396 94.392C541.788 91.8587 540.572 89.8827 538.748 88.464C536.924 87.0453 534.188 86.336 530.54 86.336C526.892 86.336 524.105 87.096 522.18 88.616C520.356 90.136 519.14 92.1627 518.532 94.696C517.924 97.128 517.62 99.8133 517.62 102.752C517.62 105.691 517.924 108.427 518.532 110.96C519.14 113.392 520.356 115.368 522.18 116.888C524.105 118.408 526.892 119.168 530.54 119.168ZM607.421 134.52C603.672 134.52 600.53 133.963 597.997 132.848C595.565 131.733 593.589 130.467 592.069 129.048C590.549 127.629 589.434 126.363 588.725 125.248C588.117 124.032 587.813 123.323 587.813 123.12H587.509V162.032H568.509V70.376H584.469L587.509 82.84H587.813C587.813 82.7387 588.117 82.08 588.725 80.864C589.333 79.5467 590.346 78.0773 591.765 76.456C593.184 74.8347 595.16 73.416 597.693 72.2C600.226 70.984 603.469 70.376 607.421 70.376C613.704 70.376 618.72 71.6933 622.469 74.328C626.218 76.9627 628.904 80.7627 630.525 85.728C632.146 90.592 632.957 96.3173 632.957 102.904C632.957 109.491 632.096 115.165 630.373 119.928C628.752 124.589 626.066 128.187 622.317 130.72C618.568 133.253 613.602 134.52 607.421 134.52ZM601.493 119.32C605.445 119.32 608.384 118.509 610.309 116.888C612.336 115.267 613.653 113.24 614.261 110.808C614.97 108.275 615.325 105.589 615.325 102.752C615.325 99.9147 614.97 97.28 614.261 94.848C613.552 92.3147 612.184 90.288 610.157 88.768C608.232 87.248 605.293 86.488 601.341 86.488C597.693 86.488 594.856 87.1973 592.829 88.616C590.802 90.0347 589.384 92.0107 588.573 94.544C587.864 97.0773 587.509 99.8133 587.509 102.752C587.509 105.792 587.864 108.579 588.573 111.112C589.384 113.544 590.802 115.52 592.829 117.04C594.957 118.56 597.845 119.32 601.493 119.32ZM666.393 134.52C658.996 134.52 652.967 133 648.305 129.96C643.745 126.92 640.401 122.968 638.273 118.104C636.145 113.24 634.98 108.173 634.777 102.904C634.676 96.3173 635.892 90.5413 638.425 85.576C640.959 80.6107 644.556 76.76 649.217 74.024C653.98 71.288 659.503 69.92 665.785 69.92C671.561 69.92 676.729 71.136 681.289 73.568C685.849 76 689.447 79.496 692.081 84.056C694.716 88.5147 696.084 93.8347 696.185 100.016C696.185 100.117 696.185 100.675 696.185 101.688C696.185 102.701 696.185 103.461 696.185 103.968H652.257C652.257 109.136 653.473 112.987 655.905 115.52C658.439 118.053 661.783 119.32 665.937 119.32C669.383 119.32 672.169 118.509 674.297 116.888C676.527 115.267 677.844 113.139 678.249 110.504H696.033C695.628 114.861 694.26 118.915 691.929 122.664C689.599 126.312 686.305 129.2 682.049 131.328C677.793 133.456 672.575 134.52 666.393 134.52ZM652.561 96.216H677.793C677.793 95.8107 677.692 95 677.489 93.784C677.287 92.568 676.78 91.3013 675.969 89.984C675.159 88.5653 673.892 87.3493 672.169 86.336C670.548 85.3227 668.268 84.816 665.329 84.816C662.492 84.816 660.212 85.272 658.489 86.184C656.767 87.096 655.5 88.2613 654.689 89.68C653.879 90.9973 653.321 92.3147 653.017 93.632C652.713 94.848 652.561 95.7093 652.561 96.216Z" fill="#010101"/>
<path d="M712.111 133C707.855 133 705.018 131.987 703.599 129.96C702.18 127.832 701.471 125.299 701.471 122.36C701.471 119.523 702.18 117.141 703.599 115.216C705.119 113.189 707.956 112.176 712.111 112.176C716.164 112.176 718.9 113.189 720.319 115.216C721.738 117.141 722.447 119.523 722.447 122.36C722.447 125.4 721.738 127.933 720.319 129.96C718.9 131.987 716.164 133 712.111 133Z" fill="#00C950"/>
</g>
<defs>
<clipPath id="clip0_154_2">
<rect width="731" height="191" fill="white"/>
</clipPath>
<clipPath id="clip1_154_2">
<rect width="193" height="191" fill="white"/>
</clipPath>
</defs>
</svg>
