<svg width="499" height="115" viewBox="0 0 499 115" fill="none" xmlns="http://www.w3.org/2000/svg">
<path d="M65.2081 0.000168324H85.2721L57.9121 85.5762H27.3601L0.000125133 0.000168324H20.0641L42.4081 77.9762L65.2081 0.000168324ZM110.203 87.0962C103.008 87.0962 96.9785 85.7282 92.1145 82.9922C87.3518 80.1548 83.7545 76.3548 81.3225 71.5922C78.9918 66.7282 77.8265 61.2055 77.8265 55.0242C77.8265 48.7415 78.9918 43.2188 81.3225 38.4562C83.7545 33.5922 87.3518 29.7922 92.1145 27.0562C96.9785 24.2188 103.008 22.8002 110.203 22.8002C120.741 22.8002 128.747 25.7388 134.218 31.6162C139.691 37.4935 142.427 45.2962 142.427 55.0242C142.427 61.1042 141.261 66.5762 138.931 71.4402C136.6 76.2028 133.053 80.0028 128.29 82.8402C123.528 85.6775 117.499 87.0962 110.203 87.0962ZM110.203 71.7442C114.357 71.7442 117.448 70.8828 119.474 69.1602C121.602 67.4375 123.021 65.2588 123.73 62.6242C124.44 59.8882 124.795 57.1522 124.795 54.4162C124.795 51.5788 124.44 48.8428 123.73 46.2082C123.021 43.4722 121.602 41.2428 119.474 39.5202C117.448 37.6962 114.357 36.7842 110.203 36.7842C106.048 36.7842 102.906 37.6962 100.778 39.5202C98.6505 41.2428 97.2318 43.4722 96.5225 46.2082C95.8132 48.8428 95.4585 51.5788 95.4585 54.4162C95.4585 57.1522 95.8132 59.8882 96.5225 62.6242C97.2318 65.2588 98.6505 67.4375 100.778 69.1602C102.906 70.8828 106.048 71.7442 110.203 71.7442ZM177.617 87.0962C171.74 87.0962 166.318 85.9308 161.353 83.6002C156.489 81.1682 152.588 77.6215 149.649 72.9602C146.71 68.1975 145.241 62.3202 145.241 55.3282C145.444 48.5388 146.964 42.7122 149.801 37.8482C152.74 32.9842 156.641 29.2348 161.505 26.6002C166.369 23.9655 171.79 22.6482 177.769 22.6482C184.457 22.6482 190.081 23.9655 194.641 26.6002C199.201 29.1335 202.646 32.3762 204.977 36.3282C207.409 40.1788 208.726 44.1815 208.929 48.3362H192.209C191.601 45.0935 190.132 42.6108 187.801 40.8882C185.47 39.1655 182.329 38.3042 178.377 38.3042C175.033 38.3042 172.246 38.9628 170.017 40.2802C167.788 41.5975 166.065 43.4215 164.849 45.7522C163.734 48.0828 163.177 50.8188 163.177 53.9602C163.177 59.2295 164.444 63.4348 166.977 66.5762C169.51 69.7175 173.412 71.2882 178.681 71.2882C181.924 71.2882 184.812 70.4268 187.345 68.7042C189.98 66.9815 191.601 64.2455 192.209 60.4962H208.929C208.726 64.8535 207.409 69.1095 204.977 73.2642C202.646 77.3175 199.15 80.6615 194.489 83.2962C189.929 85.8295 184.305 87.0962 177.617 87.0962ZM242.758 87.0962C235.361 87.0962 229.332 85.5762 224.67 82.5362C220.11 79.4962 216.766 75.5442 214.638 70.6802C212.51 65.8162 211.345 60.7495 211.142 55.4802C211.041 48.8935 212.257 43.1175 214.79 38.1522C217.324 33.1868 220.921 29.3362 225.582 26.6002C230.345 23.8642 235.868 22.4962 242.15 22.4962C247.926 22.4962 253.094 23.7122 257.654 26.1442C262.214 28.5762 265.812 32.0722 268.446 36.6322C271.081 41.0908 272.449 46.4108 272.55 52.5922C272.55 52.6935 272.55 53.2508 272.55 54.2642C272.55 55.2775 272.55 56.0375 272.55 56.5442H228.622C228.622 61.7122 229.838 65.5628 232.27 68.0962C234.804 70.6295 238.148 71.8962 242.302 71.8962C245.748 71.8962 248.534 71.0855 250.662 69.4642C252.892 67.8428 254.209 65.7148 254.614 63.0802H272.398C271.993 67.4375 270.625 71.4908 268.294 75.2402C265.964 78.8882 262.67 81.7762 258.414 83.9042C254.158 86.0322 248.94 87.0962 242.758 87.0962ZM228.926 48.7922H254.158C254.158 48.3868 254.057 47.5762 253.854 46.3602C253.652 45.1442 253.145 43.8775 252.334 42.5602C251.524 41.1415 250.257 39.9255 248.534 38.9122C246.913 37.8988 244.633 37.3922 241.694 37.3922C238.857 37.3922 236.577 37.8482 234.854 38.7602C233.132 39.6722 231.865 40.8375 231.054 42.2562C230.244 43.5735 229.686 44.8908 229.382 46.2082C229.078 47.4242 228.926 48.2855 228.926 48.7922ZM299.268 87.0962C293.593 87.0962 289.033 85.7788 285.588 83.1442C282.143 80.5095 279.66 76.8108 278.14 72.0482C276.62 67.2855 275.86 61.6615 275.86 55.1762C275.86 48.6908 276.62 43.0162 278.14 38.1522C279.761 33.2882 282.244 29.5388 285.588 26.9042C289.033 24.1682 293.593 22.8002 299.268 22.8002C303.119 22.8002 306.311 23.3575 308.844 24.4722C311.377 25.4855 313.353 26.7522 314.772 28.2722C316.292 29.7922 317.407 31.2108 318.116 32.5282C318.825 33.7442 319.281 34.5042 319.484 34.8082H319.788V22.9522H338.636V85.5762H322.676L319.788 76.1522H319.484C319.383 76.5575 318.927 77.3682 318.116 78.5842C317.407 79.6988 316.292 80.9148 314.772 82.2322C313.252 83.5495 311.225 84.6642 308.692 85.5762C306.159 86.5895 303.017 87.0962 299.268 87.0962ZM306.868 71.7442C310.516 71.7442 313.252 71.0348 315.076 69.6162C316.9 68.0962 318.116 66.0695 318.724 63.5362C319.332 61.0028 319.636 58.2668 319.636 55.3282C319.636 52.2882 319.332 49.5015 318.724 46.9682C318.116 44.4348 316.9 42.4588 315.076 41.0402C313.252 39.6215 310.516 38.9122 306.868 38.9122C303.22 38.9122 300.433 39.6722 298.508 41.1922C296.684 42.7122 295.468 44.7388 294.86 47.2722C294.252 49.7042 293.948 52.3895 293.948 55.3282C293.948 58.2668 294.252 61.0028 294.86 63.5362C295.468 65.9682 296.684 67.9442 298.508 69.4642C300.433 70.9842 303.22 71.7442 306.868 71.7442ZM383.749 87.0962C380 87.0962 376.858 86.5388 374.325 85.4242C371.893 84.3095 369.917 83.0428 368.397 81.6242C366.877 80.2055 365.762 78.9388 365.053 77.8242C364.445 76.6082 364.141 75.8988 364.141 75.6962H363.837V114.608H344.837V22.9522H360.797L363.837 35.4162H364.141C364.141 35.3148 364.445 34.6562 365.053 33.4402C365.661 32.1228 366.674 30.6535 368.093 29.0322C369.512 27.4108 371.488 25.9922 374.021 24.7762C376.554 23.5602 379.797 22.9522 383.749 22.9522C390.032 22.9522 395.048 24.2695 398.797 26.9042C402.546 29.5388 405.232 33.3388 406.853 38.3042C408.474 43.1682 409.285 48.8935 409.285 55.4802C409.285 62.0668 408.424 67.7415 406.701 72.5042C405.08 77.1655 402.394 80.7628 398.645 83.2962C394.896 85.8295 389.93 87.0962 383.749 87.0962ZM377.821 71.8962C381.773 71.8962 384.712 71.0855 386.637 69.4642C388.664 67.8428 389.981 65.8162 390.589 63.3842C391.298 60.8508 391.653 58.1655 391.653 55.3282C391.653 52.4908 391.298 49.8562 390.589 47.4242C389.88 44.8908 388.512 42.8642 386.485 41.3442C384.56 39.8242 381.621 39.0642 377.669 39.0642C374.021 39.0642 371.184 39.7735 369.157 41.1922C367.13 42.6108 365.712 44.5868 364.901 47.1202C364.192 49.6535 363.837 52.3895 363.837 55.3282C363.837 58.3682 364.192 61.1548 364.901 63.6882C365.712 66.1202 367.13 68.0962 369.157 69.6162C371.285 71.1362 374.173 71.8962 377.821 71.8962ZM442.721 87.0962C435.324 87.0962 429.295 85.5762 424.633 82.5362C420.073 79.4962 416.729 75.5442 414.601 70.6802C412.473 65.8162 411.308 60.7495 411.105 55.4802C411.004 48.8935 412.22 43.1175 414.753 38.1522C417.287 33.1868 420.884 29.3362 425.545 26.6002C430.308 23.8642 435.831 22.4962 442.113 22.4962C447.889 22.4962 453.057 23.7122 457.617 26.1442C462.177 28.5762 465.775 32.0722 468.409 36.6322C471.044 41.0908 472.412 46.4108 472.513 52.5922C472.513 52.6935 472.513 53.2508 472.513 54.2642C472.513 55.2775 472.513 56.0375 472.513 56.5442H428.585C428.585 61.7122 429.801 65.5628 432.233 68.0962C434.767 70.6295 438.111 71.8962 442.265 71.8962C445.711 71.8962 448.497 71.0855 450.625 69.4642C452.855 67.8428 454.172 65.7148 454.577 63.0802H472.361C471.956 67.4375 470.588 71.4908 468.257 75.2402C465.927 78.8882 462.633 81.7762 458.377 83.9042C454.121 86.0322 448.903 87.0962 442.721 87.0962ZM428.889 48.7922H454.121C454.121 48.3868 454.02 47.5762 453.817 46.3602C453.615 45.1442 453.108 43.8775 452.297 42.5602C451.487 41.1415 450.22 39.9255 448.497 38.9122C446.876 37.8988 444.596 37.3922 441.657 37.3922C438.82 37.3922 436.54 37.8482 434.817 38.7602C433.095 39.6722 431.828 40.8375 431.017 42.2562C430.207 43.5735 429.649 44.8908 429.345 46.2082C429.041 47.4242 428.889 48.2855 428.889 48.7922Z" fill="#010101"/>
<path d="M488.439 85.5762C484.183 85.5762 481.346 84.5628 479.927 82.5362C478.508 80.4082 477.799 77.8748 477.799 74.9362C477.799 72.0988 478.508 69.7175 479.927 67.7922C481.447 65.7655 484.284 64.7522 488.439 64.7522C492.492 64.7522 495.228 65.7655 496.647 67.7922C498.066 69.7175 498.775 72.0988 498.775 74.9362C498.775 77.9762 498.066 80.5095 496.647 82.5362C495.228 84.5628 492.492 85.5762 488.439 85.5762Z" fill="#00C950"/>
</svg>
